<svg width="48" height="48" viewBox="0 0 48 48" fill="none" xmlns="http://www.w3.org/2000/svg" aria-hidden="true">
  <rect width="48" height="48" rx="12" fill="#EFF0EA"/>
  <path d="M24 12C17.37 12 12 17.37 12 24C12 30.63 17.37 36 24 36C30.63 36 36 30.63 36 24C36 17.37 30.63 12 24 12ZM24 16C25.1 16 26 16.9 26 18V22H30C31.1 22 32 22.9 32 24C32 25.1 31.1 26 30 26H26V30C26 31.1 25.1 32 24 32C22.9 32 22 31.1 22 30V26H18C16.9 26 16 25.1 16 24C16 22.9 16.9 22 18 22H22V18C22 16.9 22.9 16 24 16Z" fill="#9F7657"/>
  <circle cx="34" cy="14" r="4" fill="#3C3A47"/>
</svg>
